<?xml version="1.0" encoding="UTF-8" standalone="no"?>
<!DOCTYPE svg PUBLIC "-//W3C//DTD SVG 1.1//EN" "http://www.w3.org/Graphics/SVG/1.1/DTD/svg11.dtd">
<!-- Created with Vectornator (http://vectornator.io/) -->
<svg height="100%" stroke-miterlimit="10" style="fill-rule:nonzero;clip-rule:evenodd;stroke-linecap:round;stroke-linejoin:round;" version="1.1" viewBox="0 0 20 20" width="100%" xml:space="preserve" xmlns="http://www.w3.org/2000/svg" xmlns:vectornator="http://vectornator.io" xmlns:xlink="http://www.w3.org/1999/xlink">
<defs/>
<g id="Capa-1" vectornator:layerName="Capa 1">
<path d="M3.67404 0L16.326 0C18.3551 0 20 1.64492 20 3.67404L20 16.326C20 18.3551 18.3551 20 16.326 20L3.67404 20C1.64492 20 0 18.3551 0 16.326L0 3.67404C0 1.64492 1.64492 0 3.67404 0Z" fill="#ffffff" fill-rule="nonzero" opacity="1" stroke="none"/>
</g>
<g id="Capa-3" vectornator:layerName="Capa 3">
<path d="M17.1489 3.1817C17.1223 2.01868 14.98 2.7783 14.018 3.20628C13.0561 3.63426 12.1896 4.2468 11.4603 5.00092C10.7309 5.75506 10.1386 6.6508 9.72496 7.64514C9.31128 8.6395 8.67506 10.8568 9.72558 10.8811C10.7761 10.9054 10.8177 10.8811 10.8177 10.8811L12.5742 10.8811L14.3307 10.8811L16.0872 10.8811C16.2338 10.8811 16.3735 10.8514 16.5005 10.7977C16.6275 10.744 16.7419 10.6662 16.838 10.5702C16.934 10.4741 17.0118 10.3597 17.0655 10.2327C17.1192 10.1057 17.1489 9.96602 17.1489 9.81944L17.1489 7.99434L17.1489 6.16922L17.1489 4.34412" fill="#1e61af" fill-rule="nonzero" opacity="1" stroke="none" vectornator:layerName="Curva"/>
</g>
</svg>
