<?xml version="1.0" encoding="UTF-8" standalone="no"?>
<!DOCTYPE svg PUBLIC "-//W3C//DTD SVG 1.1//EN" "http://www.w3.org/Graphics/SVG/1.1/DTD/svg11.dtd">
<!-- Created with Vectornator (http://vectornator.io/) -->
<svg height="100%" stroke-miterlimit="10" style="fill-rule:nonzero;clip-rule:evenodd;stroke-linecap:round;stroke-linejoin:round;" version="1.1" viewBox="0 0 200 200" width="100%" xml:space="preserve" xmlns="http://www.w3.org/2000/svg" xmlns:vectornator="http://vectornator.io" xmlns:xlink="http://www.w3.org/1999/xlink">
<defs/>
<g id="Capa-1" vectornator:layerName="Capa 1">
<path d="M79.9805 141.016L120.02 141.016C126.758 141.016 130.078 137.646 130.078 130.273L130.078 99.3653C130.078 92.0899 126.758 88.7207 120.02 88.7207L79.9805 88.7207C73.2422 88.7207 69.9219 92.0899 69.9219 99.3653L69.9219 130.273C69.9219 137.646 73.2422 141.016 79.9805 141.016ZM78.418 93.2129L90.9668 93.2129L91.0157 80.5664C91.0157 75.0489 94.6778 71.1914 100 71.1914C105.274 71.1914 109.033 75.0489 109.033 80.5664L108.984 93.2129L121.533 93.2129L121.582 80.5664C121.582 67.8711 112.647 58.9844 100 58.9844C87.3535 58.9844 78.4668 67.8711 78.4668 80.5664L78.418 93.2129Z" fill="#ffffff" fill-rule="nonzero" opacity="1" stroke="#000000" stroke-dasharray="4.0,2.0" stroke-linecap="butt" stroke-linejoin="miter" stroke-width="0.1" vectornator:layerName="path"/>
</g>
</svg>
