<?xml version="1.0" encoding="UTF-8" standalone="no"?>
<!DOCTYPE svg PUBLIC "-//W3C//DTD SVG 1.1//EN" "http://www.w3.org/Graphics/SVG/1.1/DTD/svg11.dtd">
<!-- Created with Vectornator (http://vectornator.io/) -->
<svg height="100%" stroke-miterlimit="10" style="fill-rule:nonzero;clip-rule:evenodd;stroke-linecap:round;stroke-linejoin:round;" version="1.1" viewBox="0 0 100 100" width="100%" xml:space="preserve" xmlns="http://www.w3.org/2000/svg" xmlns:vectornator="http://vectornator.io" xmlns:xlink="http://www.w3.org/1999/xlink">
<defs/>
<g id="Capa-1" vectornator:layerName="Capa 1">
<path d="M0 0L100 0L100 100L0 100L0 0Z" fill="#ffffff" fill-rule="nonzero" opacity="1" stroke="none"/>
</g>
<g id="Capa-3" vectornator:layerName="Capa 3">
<g opacity="1">
<path d="M85.7446 15.9085C85.6113 10.0934 74.8998 13.8915 70.09 16.0314C65.2803 18.1713 60.9482 21.234 57.3014 25.0046C53.6546 28.7753 50.6932 33.254 48.6248 38.2257C46.5564 43.1975 43.3753 54.284 48.6279 54.4056C53.8804 54.5272 54.0887 54.4056 54.0887 54.4056L62.8712 54.4056L71.6537 54.4056L80.4362 54.4056C81.1692 54.4056 81.8674 54.2571 82.5025 53.9884C83.1376 53.7198 83.7095 53.3311 84.1898 52.8508C84.6701 52.3705 85.0588 51.7986 85.3275 51.1635C85.5961 50.5284 85.7446 49.8301 85.7446 49.0972L85.7446 39.9717L85.7446 30.8461L85.7446 21.7206" fill="#1e61af" fill-rule="nonzero" opacity="1" stroke="none" vectornator:layerName="Curva"/>
</g>
</g>
</svg>
